<svg width="22" height="26" viewBox="0 0 22 26" fill="none" xmlns="http://www.w3.org/2000/svg">
<path d="M6.57058 6.64336V4.69231C6.57058 2.6531 8.22494 1 10.2657 1H11.7343C13.775 1 15.4294 2.6531 15.4294 4.69231V6.64336M6.57058 6.64336H4.49919C3.0296 6.64336 1.81555 7.78963 1.7323 9.25573L1.00454 22.0739C0.914353 23.6625 2.17916 25 3.77143 25H18.2286C19.8208 25 21.0856 23.6625 20.9955 22.0739L20.2677 9.25573C20.1844 7.78962 18.9704 6.64336 17.5008 6.64336H15.4294H6.57058ZM6.57058 6.64336H15.4294H6.57058Z" stroke="black" stroke-width="1.75"/>
<path d="M13.4854 20H8.6123V19.0332L10.9121 16.582C11.2279 16.237 11.4606 15.9359 11.6104 15.6787C11.7633 15.4215 11.8398 15.1774 11.8398 14.9463C11.8398 14.6305 11.7601 14.3831 11.6006 14.2041C11.4411 14.0218 11.2132 13.9307 10.917 13.9307C10.598 13.9307 10.3457 14.0413 10.1602 14.2627C9.97786 14.4808 9.88672 14.7689 9.88672 15.127H8.4707C8.4707 14.694 8.57324 14.2985 8.77832 13.9404C8.98665 13.5824 9.27962 13.3024 9.65723 13.1006C10.0348 12.8955 10.4629 12.793 10.9414 12.793C11.6738 12.793 12.2419 12.9688 12.6455 13.3203C13.0524 13.6719 13.2559 14.1683 13.2559 14.8096C13.2559 15.1611 13.1647 15.5192 12.9824 15.8838C12.8001 16.2484 12.4876 16.6732 12.0449 17.1582L10.4287 18.8623H13.4854V20Z" fill="black"/>
</svg>
