<svg width="24" height="20" viewBox="0 0 38 26" fill="none" xmlns="http://www.w3.org/2000/svg">
<g>
<path d="M1.85509 22.2857H23.5C23.9733 22.2862 24.4286 22.4675 24.7728 22.7924C25.117 23.1174 25.3241 23.5615 25.3519 24.034C25.3796 24.5065 25.2259 24.9718 24.9221 25.3348C24.6183 25.6978 24.1873 25.9311 23.7173 25.987L23.5 26H1.85509C1.38174 25.9995 0.926454 25.8182 0.582259 25.4933C0.238063 25.1683 0.0309347 24.7242 0.00319435 24.2517C-0.024546 23.7792 0.129195 23.3139 0.433006 22.9509C0.736816 22.5879 1.16776 22.3546 1.6378 22.2987L1.85509 22.2857ZM1.85509 11.1429L35.2837 11.1391C35.757 11.1397 36.2123 11.3209 36.5565 11.6459C36.9007 11.9708 37.1078 12.4149 37.1355 12.8874C37.1633 13.36 37.0095 13.8253 36.7057 14.1883C36.4019 14.5512 35.971 14.7845 35.5009 14.8404L35.2837 14.8534L1.85509 14.8571C1.38174 14.8566 0.926454 14.6754 0.582259 14.3504C0.238063 14.0255 0.0309347 13.5814 0.00319435 13.1088C-0.024546 12.6363 0.129195 12.171 0.433006 11.808C0.736816 11.445 1.16776 11.2118 1.6378 11.1559L1.85509 11.1429ZM1.85509 0L30 0.0129999C30.4733 0.013525 30.9286 0.194775 31.2728 0.519718C31.617 0.844661 31.8241 1.28877 31.8519 1.7613C31.8796 2.23384 31.7259 2.69913 31.4221 3.06212C31.1183 3.4251 30.6873 3.65838 30.2173 3.71429L30 3.72729L1.85509 3.71428C1.38174 3.71376 0.926454 3.53251 0.582259 3.20757C0.238063 2.88263 0.0309347 2.43852 0.00319435 1.96598C-0.024546 1.49345 0.129195 1.02815 0.433006 0.665169C0.736816 0.302184 1.16776 0.0689067 1.6378 0.013L1.85509 0Z" fill="black"/>
</g>
</svg>
